PathFileType	4	(X/Y/Z)	./resultDataOpenSim/trcMotMarkerGrf/sub09/qtm-14-06.trc
DataRate	CameraRate	NumFrames	NumMarkers	Units	OrigDataRate	OrigDataStartFrame	OrigNumFrames
250.000000	250.000000	13	24	m	250.000000	429	490
Frame#	Time	L.Toe.Tip			R.Toe.Tip			L.Ankle.Lat			R.Ankle.Lat			L.Ankle.Med			R.Ankle.Med			L.Heel			R.Heel			L.Knee.Lat			R.Knee.Lat			L.Knee.Med			R.Knee.Med			L.Thigh.Upper			R.Thigh.Upper			L.ASIS			R.ASIS			V.Sacral			L.Acromium			R.Acromium			C7			L.Elbow			R.Elbow			L.Wrist.Lat			R.Wrist.Lat
		X1	Y1	Z1	X2	Y2	Z2	X3	Y3	Z3	X4	Y4	Z4	X5	Y5	Z5	X6	Y6	Z6	X7	Y7	Z7	X8	Y8	Z8	X9	Y9	Z9	X10	Y10	Z10	X11	Y11	Z11	X12	Y12	Z12	X13	Y13	Z13	X14	Y14	Z14	X15	Y15	Z15	X16	Y16	Z16	X17	Y17	Z17	X18	Y18	Z18	X19	Y19	Z19	X20	Y20	Z20	X21	Y21	Z21	X22	Y22	Z22	X23	Y23	Z23	X24	Y24	Z24

429	1.712	1.8181637	0.079846517	-0.075855211	1.102259	0.040714627	0.059393454	1.6610228	0.07596804	-0.10459327	0.97374049	0.10014157	0.099458338	1.6861309	0.10151954	-0.011534232	0.99670538	0.13549754	0.0089316628	1.6072133	0.024056144	-0.05167353	0.8996536	0.10698044	0.048363642	1.5477302	0.47776256	-0.13731813	1.2423994	0.47695714	0.16061741	1.5582164	0.47239659	-0.011475545	1.2308091	0.46969778	0.033786838	1.3665434	0.85337626	-0.16806384	1.317007	0.87344081	0.20230713	1.4362	0.94622392	-0.10127397	1.4255137	0.95435824	0.14075241	1.2600455	0.99624964	0.0014899489	1.3719452	1.3966005	-0.16971647	1.3645689	1.4216412	0.16112806	1.2988051	1.4538714	-0.0055395019	1.2322114	1.0558838	-0.21537472	1.2556111	1.0697111	0.26643943	1.331828	0.82191137	-0.27731284	1.4611964	0.885135	0.24668853
430	1.716	1.8222154	0.075202641	-0.07463918	1.1025663	0.040900526	0.05951488	1.6644415	0.075723629	-0.10460079	0.97543272	0.1020353	0.10026006	1.6898248	0.10053284	-0.011430134	0.99865621	0.13721812	0.0096535912	1.609031	0.025654828	-0.051455231	0.90127644	0.11010058	0.049082846	1.5538021	0.47766855	-0.13793494	1.24836	0.47594208	0.16066876	1.5643013	0.47218653	-0.011923099	1.2371299	0.4684827	0.034057161	1.3724134	0.85296979	-0.1690418	1.323232	0.87223012	0.20135831	1.4420835	0.94587535	-0.10193927	1.4317993	0.95318714	0.14002106	1.2658899	0.99566356	0.0009853755	1.3770329	1.3959599	-0.17030096	1.3695207	1.4206993	0.16071066	1.3038132	1.453151	-0.006066072	1.2381257	1.0548866	-0.21599584	1.2612897	1.0686443	0.26546777	1.3379044	0.82102422	-0.277781	1.4659704	0.8836071	0.24654932
431	1.72	1.8257497	0.071034905	-0.073613287	1.1029331	0.041128288	0.059669097	1.6678891	0.075425034	-0.10485614	0.97744083	0.10413562	0.10112671	1.6931735	0.099627858	-0.01153763	1.0007314	0.13899893	0.010438423	1.6108465	0.026929585	-0.051606277	0.903045	0.11338459	0.049924264	1.560166	0.47803373	-0.13874297	1.2544756	0.4749181	0.16068889	1.5702576	0.47236725	-0.012321577	1.2434217	0.46727737	0.034053668	1.3784597	0.85275518	-0.16997604	1.3295329	0.87095981	0.20042743	1.4479071	0.94566817	-0.10262911	1.4380801	0.95206204	0.13926908	1.271684	0.99514525	0.00055432792	1.3821332	1.3953925	-0.17091174	1.374484	1.4198267	0.16031513	1.3088923	1.4525412	-0.0066068236	1.2441013	1.0539363	-0.21659975	1.2670962	1.0675886	0.26462203	1.3440385	0.8201842	-0.27821817	1.4707002	0.88207653	0.24641616
432	1.724	1.8285995	0.066987419	-0.072720474	1.1033566	0.04140125	0.059828351	1.6711704	0.075060305	-0.10526381	0.97989471	0.10647482	0.10210091	1.696136	0.098854034	-0.011815804	1.0029568	0.1408459	0.01127111	1.6125222	0.027906117	-0.052103471	0.90498593	0.11684716	0.050840961	1.5669583	0.47886896	-0.139637	1.2608303	0.47387417	0.16066477	1.5761518	0.47302018	-0.012749214	1.2497743	0.466006	0.033868	1.3846697	0.85280696	-0.17086106	1.3359038	0.86964908	0.19953025	1.4536874	0.94563052	-0.10332983	1.4443357	0.95100177	0.13849358	1.2774181	0.99469358	0.00018494947	1.3872456	1.3949035	-0.1715388	1.3794746	1.4190473	0.15993844	1.3140178	1.4520153	-0.0071573183	1.2501121	1.0530473	-0.21718978	1.2729803	1.0665628	0.2637873	1.3502311	0.81940766	-0.27861758	1.4753825	0.88055574	0.24629448
433	1.728	1.830822	0.062833108	-0.07179906	1.1038238	0.041690052	0.060024541	1.6741162	0.07467146	-0.10575358	0.98251908	0.10897495	0.10313829	1.6987377	0.098189268	-0.012217804	1.005354	0.14277681	0.012133979	1.6139736	0.028819677	-0.053085552	0.90712999	0.1204955	0.051774325	1.5741884	0.48008642	-0.14045346	1.2675879	0.47282962	0.16058256	1.5820692	0.47411602	-0.013273384	1.2562521	0.46471031	0.033646676	1.3910267	0.85316333	-0.1717027	1.3423585	0.86831174	0.19867746	1.4594469	0.94578428	-0.10402498	1.4505499	0.95001721	0.13769415	1.2831016	0.99430556	-0.00013373914	1.3923716	1.3944988	-0.17216851	1.3844954	1.4183831	0.15956984	1.3191563	1.4515647	-0.0077238144	1.2561448	1.0522374	-0.21777539	1.2788677	1.0655901	0.26288658	1.3564809	0.81870748	-0.27897618	1.4800126	0.87905596	0.24618857
434	1.732	1.8325835	0.058592593	-0.070719999	1.1043193	0.041947849	0.06034946	1.6766324	0.074277142	-0.10627836	0.98478232	0.11152413	0.10414711	1.700952	0.097542149	-0.012668071	1.0079347	0.14481813	0.013023648	1.6151841	0.029923299	-0.054725451	0.90950477	0.12432825	0.05267999	1.5817497	0.4815326	-0.14108715	1.2748748	0.471818	0.16044516	1.588079	0.47553883	-0.013911723	1.2628831	0.4634506	0.033502614	1.397503	0.85381941	-0.17251924	1.3489135	0.86695751	0.19787245	1.465203	0.94614153	-0.10470091	1.4567161	0.94911261	0.1368729	1.28878	0.99396734	-0.00039092674	1.3975144	1.3941837	-0.1727874	1.3895341	1.4178443	0.15918949	1.3242848	1.4511808	-0.0083107149	1.2622076	1.0515254	-0.21836198	1.2846918	1.0646985	0.26188446	1.3627837	0.81809392	-0.27929337	1.4845867	0.87758478	0.24609859
435	1.736	1.8340559	0.054458232	-0.069486184	1.1048495	0.042164677	0.060839594	1.6787545	0.073866729	-0.10678016	0.98653206	0.11410917	0.10505465	1.7027764	0.096847792	-0.013067272	1.0107135	0.14698242	0.013948658	1.616192	0.031234895	-0.056865853	0.91213175	0.12833973	0.053540259	1.5894893	0.48303982	-0.14154756	1.2826009	0.47086069	0.1602972	1.5941989	0.47713553	-0.01463157	1.2697208	0.4622239	0.033471495	1.4040477	0.8547425	-0.17333173	1.3555498	0.86560627	0.1971027	1.4709658	0.94670283	-0.10535697	1.4628382	0.9482869	0.1360302	1.2945007	0.99365759	-0.0005805235	1.4026783	1.3939581	-0.17338287	1.3945788	1.4174284	0.15877542	1.3293889	1.4508408	-0.0089080984	1.2683112	1.050926	-0.21894687	1.29041	1.0639217	0.26077364	1.3691382	0.81757624	-0.27956908	1.4891051	0.87614836	0.24601889
436	1.74	1.8353748	0.050692351	-0.068228147	1.105445	0.042379375	0.061395952	1.6806359	0.073431496	-0.10717333	0.98819944	0.1168345	0.10584259	1.7042845	0.096117488	-0.013302432	1.0137251	0.1492486	0.014912165	1.6170583	0.032506982	-0.058965214	0.91502616	0.13252034	0.054349374	1.5972439	0.4844534	-0.14191059	1.2904852	0.46996034	0.16022376	1.6003649	0.47874483	-0.015386668	1.2768171	0.46100136	0.033543805	1.4105812	0.85589158	-0.17415014	1.362217	0.86428893	0.19634036	1.4767391	0.94745125	-0.10601102	1.468927	0.9475356	0.13516206	1.3002761	0.99335401	-0.00072486883	1.4078672	1.3938148	-0.1739446	1.3996321	1.4171223	0.1583163	1.3344609	1.450517	-0.0094937442	1.2744535	1.0504409	-0.2195235	1.2959863	1.0632843	0.25956923	1.3755506	0.8171613	-0.27980626	1.4935673	0.87475345	0.24594181
437	1.744	1.8366348	0.047560359	-0.067127364	1.1061277	0.042627312	0.06183421	1.6824412	0.072987022	-0.10737175	0.99027711	0.11978615	0.10656932	1.7055546	0.095399988	-0.013270324	1.0170151	0.15157936	0.015908834	1.6178492	0.033489328	-0.060531913	0.91819623	0.13685963	0.05509693	1.6048609	0.48564818	-0.14224142	1.2983246	0.46911614	0.16029387	1.60641	0.48019369	-0.016150734	1.2841575	0.45978075	0.033702656	1.4170214	0.85722102	-0.17497538	1.3688905	0.86303359	0.19556194	1.4825196	0.94835194	-0.10668855	1.4749963	0.94685526	0.13426169	1.3060851	0.9930376	-0.00085870114	1.4130864	1.3937424	-0.17446686	1.404708	1.4169047	0.1578174	1.3394993	1.4501917	-0.010046128	1.2806221	1.050057	-0.22008563	1.3013507	1.0627853	0.25829784	1.3820291	0.8168503	-0.28001077	1.4979641	0.8734057	0.24586301
438	1.748	1.8378621	0.045228348	-0.066331904	1.106888	0.042910374	0.061993621	1.6842172	0.072574553	-0.10732863	0.99290868	0.12293388	0.10736237	1.7066061	0.094737554	-0.012928117	1.0206132	0.15395324	0.016936984	1.6186144	0.03412773	-0.061427356	0.92164497	0.14135761	0.055775689	1.6122289	0.48654795	-0.14254377	1.3061378	0.46833263	0.16050754	1.6121091	0.4813016	-0.016918132	1.2917167	0.4585581	0.033941253	1.423349	0.85866888	-0.17582385	1.3755706	0.86185753	0.19475658	1.4882988	0.94936161	-0.10740444	1.4810591	0.94624463	0.13332425	1.3118899	0.99270413	-0.0010093748	1.4183418	1.3937313	-0.17494825	1.4098178	1.4167557	0.15729733	1.3445067	1.4498664	-0.01055655	1.2868043	1.0497593	-0.22062532	1.3064153	1.0624115	0.25697777	1.388579	0.81663899	-0.28018747	1.5022854	0.87210947	0.24578121
439	1.752	1.8390073	0.043661381	-0.065850864	1.1076906	0.04321581	0.061843956	1.6858606	0.072254601	-0.10704683	0.99598173	0.12619577	0.10830239	1.7074109	0.094153472	-0.012326486	1.0245244	0.15637414	0.018002323	1.6193617	0.034500349	-0.061754878	0.92537531	0.14603566	0.056394971	1.6192834	0.48714292	-0.14276452	1.3140498	0.46760461	0.16081569	1.6173237	0.48194085	-0.017679197	1.2995072	0.45731343	0.034264789	1.4296197	0.86014885	-0.17673481	1.3822364	0.86077006	0.19391714	1.4940671	0.95043816	-0.10815817	1.4871218	0.94569873	0.13234932	1.3176546	0.99237731	-0.0011952171	1.4236338	1.3937787	-0.17539004	1.4149596	1.4166693	0.15677902	1.34949	1.4495607	-0.011029166	1.2929916	1.04954	-0.22113115	1.3112135	1.0621674	0.25561739	1.3952035	0.81652253	-0.28033935	1.506536	0.87087116	0.24569697
440	1.756	1.8400011	0.04264652	-0.06550153	1.1084896	0.043531318	0.061528765	1.6872061	0.072079687	-0.10658576	0.99935274	0.12955418	0.10930929	1.7079696	0.093652349	-0.011590547	1.0287334	0.1588658	0.01910931	1.6200604	0.034690713	-0.061716916	0.92939341	0.15093486	0.056976702	1.6259776	0.48748915	-0.14286681	1.3221631	0.46691124	0.16118905	1.6221717	0.48214337	-0.01839448	1.3075588	0.45602982	0.034689072	1.4358686	0.86156282	-0.1777369	1.3888576	0.85977333	0.19304217	1.4998029	0.95154688	-0.10894768	1.4931778	0.94521004	0.13133849	1.3233594	0.99209889	-0.001436737	1.428956	1.3938853	-0.17579572	1.4201202	1.416655	0.15628009	1.3544616	1.4493027	-0.01147191	1.2991792	1.0493944	-0.22159649	1.3159714	1.0620716	0.25422548	1.4019063	0.8164971	-0.28047018	1.5107384	0.86969924	0.24561533
441	1.76	1.8408131	0.041932772	-0.065044049	1.1092536	0.043855942	0.061261417	1.6881471	0.072041261	-0.10608157	1.0029604	0.13306306	0.11023613	1.7083692	0.093224084	-0.0108631	1.0332117	0.16146674	0.020253087	1.6206657	0.034761168	-0.061573588	0.93370917	0.15609423	0.057542117	1.6322685	0.48767546	-0.14289792	1.3305264	0.46623822	0.16165294	1.6270828	0.48217097	-0.018987616	1.3159193	0.45467485	0.035241138	1.4420457	0.8628255	-0.17882425	1.3954233	0.85885918	0.1921432	1.5054658	0.95266289	-0.10978389	1.4992059	0.94477816	0.13029356	1.3290056	0.99189619	-0.0017535202	1.4342972	1.3940497	-0.17617321	1.425283	1.4167228	0.15581011	1.3594376	1.4491174	-0.011891425	1.3053597	1.0493163	-0.22202387	1.3209209	1.0621215	0.25280691	1.4086889	0.81655681	-0.28058474	1.5149133	0.86860002	0.2455451
